<svg xmlns="http://www.w3.org/2000/svg" viewBox="0 0 196 196">
  <rect width="196" height="196" rx="16" fill="#1e1f22"/>
  <!-- Whale body -->
  <path d="M40 108 C40 80 60 62 98 62 C136 62 156 80 156 108 C156 130 140 148 98 148 C56 148 40 130 40 108Z" fill="#0db7ed" opacity="0.15"/>
  <path d="M44 110 C44 86 62 70 98 70 C134 70 152 86 152 110 C152 128 138 142 98 142 C58 142 44 128 44 110Z" fill="none" stroke="#0db7ed" stroke-width="3"/>
  <!-- Containers (grid of rectangles on the whale) -->
  <rect x="72" y="78" width="16" height="12" rx="2" fill="#0db7ed"/>
  <rect x="92" y="78" width="16" height="12" rx="2" fill="#0db7ed"/>
  <rect x="112" y="78" width="16" height="12" rx="2" fill="#0db7ed"/>
  <rect x="72" y="94" width="16" height="12" rx="2" fill="#0db7ed"/>
  <rect x="92" y="94" width="16" height="12" rx="2" fill="#0db7ed"/>
  <rect x="112" y="94" width="16" height="12" rx="2" fill="#0db7ed"/>
  <rect x="92" y="62" width="16" height="12" rx="2" fill="#0db7ed"/>
  <!-- Whale tail / water -->
  <path d="M38 120 Q28 112 32 100 Q36 90 30 82" fill="none" stroke="#0db7ed" stroke-width="2.5" stroke-linecap="round" opacity="0.6"/>
  <!-- Water line -->
  <path d="M30 130 Q55 122 80 130 Q105 138 130 130 Q155 122 170 130" fill="none" stroke="#0db7ed" stroke-width="2" opacity="0.3"/>
  <!-- Label -->
  <text x="98" y="164" text-anchor="middle" font-family="Arial, sans-serif" font-size="14" font-weight="600" fill="#0db7ed" opacity="0.8">DOCKER</text>
</svg>
